/* XPM */
static const char * mdi_xpm[] = {
"22 22 104 2",
"  	c None",
". 	c #030272",
"+ 	c #080777",
"@ 	c #0D0A7D",
"# 	c #110F83",
"$ 	c #151389",
"% 	c #1A188F",
"& 	c #201C95",
"* 	c #241F9A",
"= 	c #2924A0",
"- 	c #2E28A6",
"; 	c #322CAB",
"> 	c #3830B1",
", 	c #3C35B7",
"' 	c #4139BD",
") 	c #463DC2",
"! 	c #4A41C7",
"~ 	c #5045CD",
"{ 	c #5449D3",
"] 	c #594DD9",
"^ 	c #5E52DF",
"/ 	c #6356E5",
"( 	c #675AEA",
"_ 	c #030372",
": 	c #070677",
"< 	c #0C0B7D",
"[ 	c #120F83",
"} 	c #161388",
"| 	c #1B178E",
"1 	c #201C94",
"2 	c #251F9A",
"3 	c #2A24A0",
"4 	c #2E28A5",
"5 	c #332CAB",
"6 	c #3831B1",
"7 	c #4B41C8",
"8 	c #4F45CE",
"9 	c #544AD3",
"0 	c #594ED9",
"a 	c #5E52DE",
"b 	c #070778",
"c 	c #161389",
"d 	c #1F1B94",
"e 	c #24209A",
"f 	c #322CAC",
"g 	c #453DC2",
"h 	c #4B42C8",
"i 	c #5045CE",
"j 	c #6256E4",
"k 	c #685BEA",
"l 	c #080778",
"m 	c #1B188F",
"n 	c #1F1C95",
"o 	c #2923A0",
"p 	c #2D29A6",
"q 	c #332DAB",
"r 	c #3730B1",
"s 	c #3C34B7",
"t 	c #4139BC",
"u 	c #5046CD",
"v 	c #5549D4",
"w 	c #5D51DE",
"x 	c #6356E4",
"y 	c #675AEB",
"z 	c #161489",
"A 	c #1B188E",
"B 	c #2D29A5",
"C 	c #3D35B6",
"D 	c #4138BC",
"E 	c #4A41C8",
"F 	c #6256E5",
"G 	c #080678",
"H 	c #1B178F",
"I 	c #453DC3",
"J 	c #4A42C8",
"K 	c #5046CE",
"L 	c #554AD3",
"M 	c #685AEB",
"N 	c #040373",
"O 	c #FFFFFF",
"P 	c #6357E5",
"Q 	c #030373",
"R 	c #6456E5",
"S 	c #6457E5",
"T 	c #6356E6",
"U 	c #040372",
"V 	c #0D0B7E",
"W 	c #110F84",
"X 	c #1A178E",
"Y 	c #1F1B93",
"Z 	c #241F99",
"` 	c #28239E",
" .	c #2C27A4",
"..	c #312BAA",
"+.	c #352EAE",
"@.	c #3A32B5",
"#.	c #3F36B9",
"$.	c #433ABF",
"%.	c #483FC5",
"&.	c #4C43CA",
"*.	c #5147CF",
"=.	c #564BD5",
"-.	c #5A4EDA",
";.	c #5E53E0",
". + @ # $ % & * = - ; > , ' ) ! ~ { ] ^ / ( ",
"_ : < [ } | 1 2 3 4 5 6 , ' ) 7 8 9 0 a / ( ",
". b < # c % d e = 4 f > , ' g h i { 0 ^ j k ",
". l @ # c m n * o p q r s t ) 7 u v ] w x y ",
"_ l @ # z A & e = B ; r C D g E 8 9 0 ^ F ( ",
". G < # c H n e = 4 ; 6 , t I J K L 0 ^ / M ",
"N O O O O O O O O O O O O O O O O O O O O P ",
"Q O O O O O O O O O O O O O O O O O O O O P ",
"Q O O O O O O O O O O O O O O O O O O O O / ",
"N O O O O O O O O O O O O O O O O O O O O P ",
"N O O O O O O O O O O O O O O O O O O O O P ",
"N O O O O O O O O O O O O O O O O O O O O / ",
"N O O O O O O O O O O O O O O O O O O O O / ",
"Q O O O O O O O O O O O O O O O O O O O O R ",
"N O O O O O O O O O O O O O O O O O O O O S ",
"N O O O O O O O O O O O O O O O O O O O O P ",
"N O O O O O O O O O O O O O O O O O O O O T ",
"Q O O O O O O O O O O O O O O O O O O O O / ",
"Q O O O O O O O O O O O O O O O O O O O O / ",
"N O O O O O O O O O O O O O O O O O O O O / ",
"U O O O O O O O O O O O O O O O O O O O O / ",
"N l V W c X Y Z `  ...+.@.#.$.%.&.*.=.-.;./ "};
